<?xml version="1.0" standalone="no"?>
<!DOCTYPE svg PUBLIC "-//W3C//DTD SVG 20010904//EN"
 "http://www.w3.org/TR/2001/REC-SVG-20010904/DTD/svg10.dtd">
<svg version="1.0" xmlns="http://www.w3.org/2000/svg"
 width="16.000000pt" height="16.000000pt" viewBox="0 0 16.000000 16.000000"
 preserveAspectRatio="xMidYMid meet">
<metadata>
Created by potrace 1.11, written by Peter Selinger 2001-2013
</metadata>
<g transform="translate(0.000000,16.000000) scale(0.008333,-0.008333)"
fill="#000000" stroke="none">
<path d="M800 1630 l0 -280 65 0 65 0 0 280 0 280 -65 0 -65 0 0 -280z"/>
<path d="M323 1839 c-70 -34 -115 -82 -138 -148 -41 -122 11 -253 126 -316 48
-26 64 -30 139 -30 95 0 152 21 208 76 101 99 101 268 1 368 -50 51 -111 75
-199 77 -66 3 -83 -1 -137 -27z m211 -106 c58 -49 78 -111 56 -178 -36 -108
-170 -137 -243 -52 -69 80 -48 194 45 241 41 20 111 15 142 -11z"/>
<path d="M996 1713 c8 -21 19 -47 24 -58 5 -11 36 -84 69 -162 50 -122 57
-145 47 -165 -13 -26 -54 -35 -84 -19 -14 7 -21 5 -32 -12 -34 -52 -39 -66
-27 -75 22 -17 52 -25 102 -28 94 -5 129 31 192 192 25 65 67 174 93 242 l48
123 -66 -3 -65 -3 -42 -130 c-48 -148 -38 -151 -103 25 l-38 105 -67 3 -66 3
15 -38z"/>
<path d="M623 1178 c-28 -13 -39 -62 -22 -94 25 -48 100 -40 119 11 13 33 -10
80 -42 89 -28 7 -28 7 -55 -6z"/>
<path d="M933 1160 c-36 -12 -82 -62 -85 -93 0 -12 -2 -26 -3 -32 -2 -5 -3
-20 -4 -32 -1 -17 -6 -21 -26 -17 -24 4 -25 2 -25 -41 0 -41 2 -45 25 -45 28
0 26 13 28 -175 l2 -120 63 -3 62 -3 0 151 0 150 46 0 45 0 -3 43 -3 42 -42
-1 c-40 -1 -43 1 -43 25 0 46 31 68 73 52 20 -8 25 -4 44 30 l22 39 -25 17
c-30 19 -107 26 -151 13z"/>
<path d="M170 860 l0 -260 178 2 177 3 0 53 1 52 -91 1 c-49 1 -99 2 -111 2
-20 0 -21 4 -22 181 0 100 -1 191 -1 204 -1 20 -5 22 -66 22 l-65 0 0 -260z"/>
<path d="M1138 1041 c-2 -41 -7 -56 -18 -57 -8 -1 -19 -2 -25 -3 -5 0 -10 -19
-10 -41 -1 -37 1 -40 26 -40 l27 0 4 -117 c4 -159 21 -183 133 -188 27 -1 62
2 78 8 25 8 28 13 23 36 -4 14 -8 33 -10 41 -2 9 -15 15 -33 16 -61 2 -63 5
-63 109 l0 95 53 0 52 0 2 40 c2 43 4 42 -69 43 l-38 0 0 58 0 57 -65 0 -64
-1 -3 -56z"/>
<path d="M1519 1000 c-71 -21 -107 -77 -95 -145 8 -43 50 -76 130 -102 65 -21
91 -47 66 -64 -22 -14 -89 -5 -137 18 l-42 21 -20 -41 -20 -41 25 -17 c37 -24
134 -42 189 -36 90 11 135 55 135 133 0 35 -5 47 -35 73 -19 16 -57 37 -84 45
-66 19 -91 34 -91 51 0 30 63 31 133 2 l37 -16 20 39 c11 22 20 41 20 44 0 2
-24 13 -52 24 -56 20 -135 26 -179 12z"/>
<path d="M590 800 l0 -200 65 0 65 0 0 200 0 200 -65 0 -65 0 0 -200z"/>
<path d="M477 418 c-111 -31 -170 -177 -114 -285 55 -105 214 -135 320 -61 50
36 51 51 1 77 -42 23 -45 23 -64 6 -10 -9 -35 -19 -54 -22 -30 -4 -41 0 -66
25 -21 22 -30 40 -30 64 0 36 32 98 52 99 7 0 21 2 30 4 10 2 34 -5 54 -15 35
-18 37 -18 75 2 49 25 48 43 -6 80 -46 32 -135 44 -198 26z"/>
<path d="M902 421 c-48 -12 -109 -56 -129 -93 -11 -22 -17 -56 -18 -99 0 -55
4 -72 28 -108 40 -61 109 -91 196 -87 81 4 109 15 155 60 101 102 54 285 -84
324 -31 9 -116 10 -148 3z m131 -119 c23 -24 32 -85 18 -121 -33 -78 -151 -61
-167 26 -8 43 16 99 48 113 30 13 79 4 101 -18z"/>
<path d="M203 137 c-39 -22 -45 -65 -13 -97 55 -55 139 25 90 85 -15 18 -54
24 -77 12z"/>
</g>
</svg>
